<svg width="393" height="173" viewBox="0 0 393 173" fill="none" xmlns="http://www.w3.org/2000/svg">
<path d="M75.8 68.0432V77.264H52.0544V91.8704H70.2512V100.928H52.0544V125H40.6304V68.0432H75.8ZM128.373 101.418C128.373 103.05 128.264 104.518 128.046 105.824H94.9983C95.2703 109.088 96.4127 111.645 98.4255 113.494C100.438 115.344 102.914 116.269 105.851 116.269C110.094 116.269 113.114 114.446 114.909 110.802H127.23C125.925 115.154 123.422 118.744 119.723 121.573C116.024 124.347 111.482 125.734 106.096 125.734C101.744 125.734 97.8271 124.782 94.3455 122.878C90.9183 120.92 88.2255 118.173 86.2671 114.637C84.3631 111.101 83.4111 107.021 83.4111 102.397C83.4111 97.7184 84.3631 93.6112 86.2671 90.0752C88.1711 86.5392 90.8367 83.8192 94.2639 81.9152C97.6911 80.0112 101.635 79.0592 106.096 79.0592C110.394 79.0592 114.229 79.984 117.602 81.8336C121.029 83.6832 123.667 86.3216 125.517 89.7488C127.421 93.1216 128.373 97.0112 128.373 101.418ZM116.541 98.1536C116.486 95.216 115.426 92.8768 113.358 91.136C111.291 89.3408 108.762 88.4432 105.77 88.4432C102.941 88.4432 100.547 89.3136 98.5887 91.0544C96.6847 92.7408 95.5151 95.1072 95.0799 98.1536H116.541ZM159.886 89.1776H151.97V125H140.383V89.1776H135.242V79.7936H140.383V77.5088C140.383 71.96 141.961 67.88 145.116 65.2688C148.271 62.6576 153.031 61.4336 159.396 61.5968V71.2256C156.622 71.1712 154.69 71.6336 153.602 72.6128C152.514 73.592 151.97 75.36 151.97 77.9168V79.7936H159.886V89.1776ZM211.761 101.418C211.761 103.05 211.652 104.518 211.435 105.824H178.387C178.659 109.088 179.801 111.645 181.814 113.494C183.827 115.344 186.302 116.269 189.239 116.269C193.483 116.269 196.502 114.446 198.297 110.802H210.619C209.313 115.154 206.811 118.744 203.111 121.573C199.412 124.347 194.87 125.734 189.484 125.734C185.132 125.734 181.215 124.782 177.734 122.878C174.307 120.92 171.614 118.173 169.655 114.637C167.751 111.101 166.799 107.021 166.799 102.397C166.799 97.7184 167.751 93.6112 169.655 90.0752C171.559 86.5392 174.225 83.8192 177.652 81.9152C181.079 80.0112 185.023 79.0592 189.484 79.0592C193.782 79.0592 197.617 79.984 200.99 81.8336C204.417 83.6832 207.055 86.3216 208.905 89.7488C210.809 93.1216 211.761 97.0112 211.761 101.418ZM199.929 98.1536C199.875 95.216 198.814 92.8768 196.747 91.136C194.679 89.3408 192.15 88.4432 189.158 88.4432C186.329 88.4432 183.935 89.3136 181.977 91.0544C180.073 92.7408 178.903 95.1072 178.468 98.1536H199.929Z" fill="#1C1C1C"/>
<path d="M233.808 68.0432V103.294C233.808 107.157 234.815 110.122 236.827 112.189C238.84 114.202 241.669 115.208 245.314 115.208C249.013 115.208 251.869 114.202 253.882 112.189C255.895 110.122 256.901 107.157 256.901 103.294V68.0432H268.407V103.213C268.407 108.054 267.346 112.162 265.224 115.534C263.157 118.853 260.355 121.355 256.819 123.042C253.338 124.728 249.448 125.571 245.151 125.571C240.907 125.571 237.045 124.728 233.563 123.042C230.136 121.355 227.416 118.853 225.403 115.534C223.391 112.162 222.384 108.054 222.384 103.213V68.0432H233.808ZM316.001 125L303.679 105.824L292.5 125H279.607L297.559 96.2768L279.363 68.0432H292.5L304.822 87.1376L315.919 68.0432H328.812L310.942 96.6848L329.139 125H316.001Z" fill="#3D9BE9"/>
<g clip-path="url(#clip0)">
<mask id="mask0" style="mask-type:alpha" maskUnits="userSpaceOnUse" x="12" y="13" width="47" height="40">
<path fill-rule="evenodd" clip-rule="evenodd" d="M58.4263 31.4626C58.5633 39.6824 50.3381 44.3016 42.9104 47.4877C34.2938 51.1837 23.9929 55.8006 17.8784 48.8554C10.7023 40.7044 10.5458 27.3999 17.3792 18.488C23.2007 10.8958 33.6592 14.1117 42.4001 16.8746C49.9738 19.2686 58.2886 23.2021 58.4263 31.4626Z" fill="#F5C245"/>
</mask>
<g mask="url(#mask0)">
<rect x="32.1875" width="47.2643" height="47.2643" transform="rotate(42.9224 32.1875 0)" fill="#84D079"/>
</g>
</g>
<mask id="mask1" style="mask-type:alpha" maskUnits="userSpaceOnUse" x="5" y="63" width="23" height="21">
<path d="M6.19027 71.3147C3.26187 58.8474 18.7406 65.1923 19.7864 65.7489C20.8323 66.3055 31.7092 69.7563 25.0157 76.8805C16.6488 85.7857 9.85076 86.8988 6.19027 71.3147Z" fill="#69D9C8"/>
</mask>
<g mask="url(#mask1)">
<rect x="5" y="62" width="23" height="23" fill="#8DC6F2"/>
</g>
<mask id="mask2" style="mask-type:alpha" maskUnits="userSpaceOnUse" x="324" y="141" width="31" height="31">
<path fill-rule="evenodd" clip-rule="evenodd" d="M338.63 141.18C345.133 141.11 351.009 144.798 353.26 150.661C355.835 157.364 355.625 165.55 349.592 169.727C343.61 173.869 335.578 171.307 329.801 166.905C324.812 163.103 322.977 156.775 324.971 150.964C326.937 145.235 332.352 141.247 338.63 141.18Z" fill="#F495AF"/>
</mask>
<g mask="url(#mask2)">
<rect x="323" y="140" width="33" height="33" fill="#F495AF"/>
</g>
<mask id="mask3" style="mask-type:alpha" maskUnits="userSpaceOnUse" x="343" y="86" width="47" height="51">
<path fill-rule="evenodd" clip-rule="evenodd" d="M368.42 87.1599C372.074 86.2666 375.781 87.7433 378.958 89.7646C383.251 92.4957 388.516 95.2873 389.154 100.352C389.822 105.654 384.715 109.402 382.012 114.006C377.525 121.649 376.979 133.477 368.42 135.67C359.699 137.904 349.894 131.258 345.523 123.355C341.628 116.312 344.956 107.374 348.887 100.352C351.367 95.9203 357.807 96.7451 362.007 93.9088C364.678 92.105 365.293 87.9244 368.42 87.1599Z" fill="#F4B7BD"/>
</mask>
<g mask="url(#mask3)">
<rect x="340" y="85" width="53" height="53" fill="#F5C245"/>
</g>
<defs>
<clipPath id="clip0">
<rect width="47.2643" height="47.2643" fill="white" transform="translate(32.1875) rotate(42.9224)"/>
</clipPath>
</defs>
</svg>
